<svg xmlns="http://www.w3.org/2000/svg" width="41.539" height="41.121" viewBox="0 0 41.539 41.121">
  <g id="Сгруппировать_1605" data-name="Сгруппировать 1605" transform="translate(-2174.5 258.767)">
    <g id="Сгруппировать_1592" data-name="Сгруппировать 1592" transform="translate(1995 -4443.519)">
      <path id="Контур_7163" data-name="Контур 7163" d="M220.537,4191.7l-6.518-5.734a2.365,2.365,0,0,0-3.13,0l-6.518,5.734" transform="translate(-12.185)" fill="none" stroke="#666" stroke-linecap="round" stroke-linejoin="round" stroke-width="1"/>
      <path id="Контур_7164" data-name="Контур 7164" d="M184.865,4211.408l-4.315,3.8a1.622,1.622,0,0,0-.549,1.216v20.347a1.621,1.621,0,0,0,1.621,1.622h37.3a1.622,1.622,0,0,0,1.621-1.622v-20.347a1.622,1.622,0,0,0-.55-1.216l-4.315-3.8" transform="translate(0 -13.018)" fill="none" stroke="#666" stroke-linecap="round" stroke-linejoin="round" stroke-width="1"/>
      <path id="Контур_7165" data-name="Контур 7165" d="M220.537,4201.024v-3H189.728v3" transform="translate(-4.864 -6.326)" fill="none" stroke="#0071bc" stroke-linecap="round" stroke-linejoin="round" stroke-width="1"/>
      <path id="Контур_7166" data-name="Контур 7166" d="M220.537,4207.024v-3H189.728v3" transform="translate(-4.864 -9.326)" fill="none" stroke="#0071bc" stroke-linecap="round" stroke-linejoin="round" stroke-width="1"/>
      <path id="Контур_7167" data-name="Контур 7167" d="M209.532,4226.81l11-8.246v-8.54H189.728v8.54l11.033,8.229A8.08,8.08,0,0,1,209.532,4226.81Z" transform="translate(-4.864 -12.326)" fill="#0071bc" stroke="#0071bc" stroke-linecap="round" stroke-linejoin="round" stroke-width="1"/>
      <g id="Сгруппировать_1260" data-name="Сгруппировать 1260" transform="translate(197.342 4199.913)">
        <path id="Контур_7168" data-name="Контур 7168" d="M220.212,4217.343c-.408-.021-.822-.041-1.239-.059q-.692-.031-1.4-.03-.727,0-1.249.037a2.436,2.436,0,0,0-.917.22,1.145,1.145,0,0,0-.554.605,2.9,2.9,0,0,0-.165,1.1,2.009,2.009,0,0,0,.4,1.392,2.082,2.082,0,0,0,1.354.556l2.295.252a2.419,2.419,0,0,1,1.521.551,2.129,2.129,0,0,1,.442,1.509,2.67,2.67,0,0,1-.2,1.13,1.281,1.281,0,0,1-.555.594,2.607,2.607,0,0,1-.923.259,12.114,12.114,0,0,1-1.332.064q-.612,0-1.351-.023-.681-.023-1.547-.1" transform="translate(-214.685 -4215.854)" fill="none" stroke="#fff" stroke-linecap="round" stroke-linejoin="round" stroke-width="1"/>
        <line id="Линия_915" data-name="Линия 915" x1="0.75" y2="11.268" transform="translate(2.564)" fill="none" stroke="#fff" stroke-linecap="round" stroke-linejoin="round" stroke-width="1"/>
      </g>
      <path id="Контур_7169" data-name="Контур 7169" d="M181.3,4252.674l14.883-10.2a8.111,8.111,0,0,1,9.474,0l15.046,10.2" transform="translate(-0.648 -27.789)" fill="none" stroke="#666" stroke-linecap="round" stroke-linejoin="round" stroke-width="1"/>
      <line id="Линия_916" data-name="Линия 916" x2="15.459" y2="11.241" transform="translate(180.324 4203.158)" fill="none" stroke="#666" stroke-linecap="round" stroke-linejoin="round" stroke-width="1"/>
      <line id="Линия_917" data-name="Линия 917" y1="11.241" x2="15.459" transform="translate(204.755 4203.158)" fill="none" stroke="#666" stroke-linecap="round" stroke-linejoin="round" stroke-width="1"/>
    </g>
  </g>
</svg>
