<svg xmlns="http://www.w3.org/2000/svg" width="31" height="41" viewBox="0 0 31 41">
  <g id="Сгруппировать_1602" data-name="Сгруппировать 1602" transform="translate(-1664.5 258.5)">
    <rect id="Прямоугольник_28" data-name="Прямоугольник 28" width="30" height="40" rx="2" transform="translate(1665 -258)" fill="none" stroke="#666" stroke-linecap="round" stroke-linejoin="round" stroke-width="1"/>
    <g id="Контур_7599" data-name="Контур 7599" transform="translate(1669 -254)" fill="#f5af18" stroke-linecap="round">
      <path d="M 21.5 7.5 L 0.5 7.5 L 0.5 0.5 L 21.5 0.5 L 21.5 7.5 Z" stroke="none"/>
      <path d="M 1 1 L 1 7 L 21 7 L 21 1 L 1 1 M 0 0 L 22 0 L 22 8 L 0 8 L 0 0 Z" stroke="none" fill="#f5af18"/>
    </g>
    <g id="Прямоугольник_30" data-name="Прямоугольник 30" transform="translate(1669 -226)" fill="none" stroke="#666" stroke-linecap="round" stroke-linejoin="round" stroke-width="1">
      <rect width="4" height="4" stroke="none"/>
      <rect x="0.5" y="0.5" width="3" height="3" fill="none"/>
    </g>
    <g id="Прямоугольник_31" data-name="Прямоугольник 31" transform="translate(1675 -226)" fill="none" stroke="#666" stroke-linecap="round" stroke-linejoin="round" stroke-width="1">
      <rect width="4" height="4" stroke="none"/>
      <rect x="0.5" y="0.5" width="3" height="3" fill="none"/>
    </g>
    <g id="Прямоугольник_32" data-name="Прямоугольник 32" transform="translate(1669 -232)" fill="none" stroke="#666" stroke-linecap="round" stroke-linejoin="round" stroke-width="1">
      <rect width="4" height="4" stroke="none"/>
      <rect x="0.5" y="0.5" width="3" height="3" fill="none"/>
    </g>
    <g id="Прямоугольник_33" data-name="Прямоугольник 33" transform="translate(1675 -232)" fill="none" stroke="#666" stroke-linecap="round" stroke-linejoin="round" stroke-width="1">
      <rect width="4" height="4" stroke="none"/>
      <rect x="0.5" y="0.5" width="3" height="3" fill="none"/>
    </g>
    <g id="Прямоугольник_34" data-name="Прямоугольник 34" transform="translate(1669 -238)" fill="none" stroke="#666" stroke-linecap="round" stroke-linejoin="round" stroke-width="1">
      <rect width="4" height="4" stroke="none"/>
      <rect x="0.5" y="0.5" width="3" height="3" fill="none"/>
    </g>
    <g id="Прямоугольник_35" data-name="Прямоугольник 35" transform="translate(1675 -238)" fill="none" stroke="#666" stroke-linecap="round" stroke-linejoin="round" stroke-width="1">
      <rect width="4" height="4" stroke="none"/>
      <rect x="0.5" y="0.5" width="3" height="3" fill="none"/>
    </g>
    <g id="Прямоугольник_36" data-name="Прямоугольник 36" transform="translate(1669 -244)" fill="none" stroke="#666" stroke-linecap="round" stroke-linejoin="round" stroke-width="1">
      <rect width="4" height="4" stroke="none"/>
      <rect x="0.5" y="0.5" width="3" height="3" fill="none"/>
    </g>
    <g id="Прямоугольник_37" data-name="Прямоугольник 37" transform="translate(1675 -244)" fill="none" stroke="#666" stroke-linecap="round" stroke-linejoin="round" stroke-width="1">
      <rect width="4" height="4" stroke="none"/>
      <rect x="0.5" y="0.5" width="3" height="3" fill="none"/>
    </g>
    <g id="Прямоугольник_42" data-name="Прямоугольник 42" transform="translate(1681 -226)" fill="none" stroke="#666" stroke-linecap="round" stroke-linejoin="round" stroke-width="1">
      <rect width="4" height="4" stroke="none"/>
      <rect x="0.5" y="0.5" width="3" height="3" fill="none"/>
    </g>
    <g id="Прямоугольник_43" data-name="Прямоугольник 43" transform="translate(1681 -232)" fill="none" stroke="#666" stroke-linecap="round" stroke-linejoin="round" stroke-width="1">
      <rect width="4" height="4" stroke="none"/>
      <rect x="0.5" y="0.5" width="3" height="3" fill="none"/>
    </g>
    <g id="Прямоугольник_44" data-name="Прямоугольник 44" transform="translate(1681 -238)" fill="none" stroke="#666" stroke-linecap="round" stroke-linejoin="round" stroke-width="1">
      <rect width="4" height="4" stroke="none"/>
      <rect x="0.5" y="0.5" width="3" height="3" fill="none"/>
    </g>
    <g id="Прямоугольник_45" data-name="Прямоугольник 45" transform="translate(1681 -244)" fill="none" stroke="#666" stroke-linecap="round" stroke-linejoin="round" stroke-width="1">
      <rect width="4" height="4" stroke="none"/>
      <rect x="0.5" y="0.5" width="3" height="3" fill="none"/>
    </g>
    <g id="Прямоугольник_46" data-name="Прямоугольник 46" transform="translate(1687 -232)" fill="#f5af18" stroke="#f5af18" stroke-linecap="round" stroke-linejoin="round" stroke-width="1">
      <rect width="4" height="10" stroke="none"/>
      <rect x="0.5" y="0.5" width="3" height="9" fill="none"/>
    </g>
    <g id="Прямоугольник_47" data-name="Прямоугольник 47" transform="translate(1687 -238)" fill="none" stroke="#666" stroke-linecap="round" stroke-linejoin="round" stroke-width="1">
      <rect width="4" height="4" stroke="none"/>
      <rect x="0.5" y="0.5" width="3" height="3" fill="none"/>
    </g>
    <g id="Прямоугольник_48" data-name="Прямоугольник 48" transform="translate(1687 -244)" fill="none" stroke="#666" stroke-linecap="round" stroke-linejoin="round" stroke-width="1">
      <rect width="4" height="4" stroke="none"/>
      <rect x="0.5" y="0.5" width="3" height="3" fill="none"/>
    </g>
  </g>
</svg>
