<svg xmlns="http://www.w3.org/2000/svg" width="41.208" height="41.206" viewBox="0 0 41.208 41.206">
  <g id="Сгруппировать_1604" data-name="Сгруппировать 1604" transform="translate(-2004.5 258.5)">
    <path id="Контур_25" data-name="Контур 25" d="M711.944,519.853l-4.515-4.515,1.987-1.987,2.527,2.527,6.5-6.5,1.988,1.988Z" transform="translate(1305 -758)" fill="#00a99d" stroke="#00a99d" stroke-linecap="round" stroke-linejoin="round" stroke-width="1"/>
    <path id="Контур_26" data-name="Контур 26" d="M728,514a14,14,0,1,1-14-14A14,14,0,0,1,728,514Z" transform="translate(1305 -758)" fill="none" stroke="#666" stroke-linecap="round" stroke-linejoin="round" stroke-width="1"/>
    <path id="Контур_27" data-name="Контур 27" d="M725,514a11,11,0,1,1-11-11A11,11,0,0,1,725,514Z" transform="translate(1305 -758)" fill="none" stroke="#666" stroke-linecap="round" stroke-linejoin="round" stroke-width="1"/>
    <line id="Линия_17" data-name="Линия 17" x2="5.552" y2="5.551" transform="translate(2028.915 -234.085)" fill="none" stroke="#666" stroke-linecap="round" stroke-linejoin="round" stroke-width="1"/>
    <rect id="Прямоугольник_50" data-name="Прямоугольник 50" width="5.959" height="11.918" transform="translate(2032.359 -226.426) rotate(-45.011)" fill="none" stroke="#666" stroke-linecap="round" stroke-linejoin="round" stroke-width="1"/>
  </g>
</svg>
