<svg xmlns="http://www.w3.org/2000/svg" width="18" height="22" viewBox="0 0 18 22">
  <g id="Сгруппировать_1124" data-name="Сгруппировать 1124" transform="translate(-591 -634.618)">
    <g id="Сгруппировать_1122" data-name="Сгруппировать 1122">
      <path id="Контур_5811" data-name="Контур 5811" d="M592.8,639.867v-4.249H594v4.249a3,3,0,0,0,1.135,2.351l3.3,2.617a1,1,0,0,1,0,1.566l-3.2,2.517c-2.559,2.031-2.135,6.7-2.135,6.7h-1.2s-.524-5.093,2.591-7.566l2.912-2.434-2.311-1.834A4.981,4.981,0,0,1,592.8,639.867Z" fill="#3fa3ef"/>
    </g>
    <g id="Сгруппировать_1123" data-name="Сгруппировать 1123">
      <path id="Контур_5812" data-name="Контур 5812" d="M607.2,639.867v-4.249H606v4.249a3,3,0,0,1-1.135,2.351l-3.3,2.617a1,1,0,0,0,0,1.566l3.2,2.517c2.559,2.031,2.135,6.7,2.135,6.7h1.2s.524-5.093-2.591-7.566l-2.911-2.434,2.31-1.834A4.979,4.979,0,0,0,607.2,639.867Z" fill="#3fa3ef"/>
    </g>
    <rect id="Прямоугольник_379" data-name="Прямоугольник 379" width="18" height="1" rx="0.5" transform="translate(591 655.618)" fill="#3fa3ef"/>
    <rect id="Прямоугольник_380" data-name="Прямоугольник 380" width="16" height="1" rx="0.5" transform="translate(592 634.618)" fill="#3fa3ef"/>
    <path id="Контур_5813" data-name="Контур 5813" d="M594,655.618l4.732-3.88a2,2,0,0,1,2.536,0l4.732,3.88Z" fill="#3fa3ef"/>
    <path id="Контур_5814" data-name="Контур 5814" d="M597,642.7l2.372,1.913a1,1,0,0,0,1.256,0L603,642.7Z" fill="#3fa3ef"/>
  </g>
</svg>
